<svg id="Layer_2" data-name="Layer 2" xmlns="http://www.w3.org/2000/svg" viewBox="0 0 600 600"><defs><style>.cls-1,.cls-2,.cls-3,.cls-4{fill:#fff;}.cls-1,.cls-3,.cls-4{stroke:#fff;stroke-miterlimit:10;}.cls-3{stroke-width:21px;}.cls-4{stroke-width:22px;}</style></defs><title>Artboard 1</title><path class="cls-1" d="M187.53,104.5C177.21,104.5,194,186.77,243,245c10.84,12.88,19,29,16,85-5.77,107.76-25.47,157.46-25.47,196.5,0,7,25.22,4.75,25.22.09,0-10.47,9.47-73.41,20.63-114.13C288,381,300,377.53,300,377.53V226s-40.85,5.11-61.47-27.5c-22.36-35.35-25.59-95.81-33.91-95.81C193.1,102.69,195.26,104.5,187.53,104.5Z"/><ellipse class="cls-2" cx="300" cy="174.89" rx="33.51" ry="34.94"/><path class="cls-3" d="M137.59,91s46.4-4.65,77.34-7c25.82-2,85.07-2.33,85.07-2.33"/><line class="cls-4" x1="114.81" y1="58.64" x2="125" y2="141.98"/><line class="cls-4" x1="92.75" y1="135.82" x2="84.83" y2="71"/><line class="cls-4" x1="57.48" y1="83.09" x2="63.15" y2="129.39"/><line class="cls-4" x1="32.44" y1="99.64" x2="34.86" y2="118.15"/><path class="cls-3" d="M462.41,91s-46.4-4.65-77.34-7c-25.82-2-85.07-2.33-85.07-2.33"/><line class="cls-4" x1="485.19" y1="53.98" x2="475" y2="137.32"/><line class="cls-4" x1="507.25" y1="131.16" x2="515.17" y2="66.34"/><line class="cls-4" x1="542.52" y1="78.43" x2="536.85" y2="124.73"/><line class="cls-4" x1="567.56" y1="94.98" x2="565.14" y2="113.49"/><path class="cls-1" d="M412.47,104.5c10.32,0-6.49,82.27-55.47,140.5-10.84,12.88-19,29-16,85,5.77,107.76,25.47,157.46,25.47,196.5,0,7-25.22,4.75-25.22.09,0-10.47-9.47-73.41-20.63-114.13C312,381,300,377.53,300,377.53V226s40.85,5.11,61.47-27.5c22.36-35.35,25.59-95.81,33.91-95.81C406.9,102.69,404.74,104.5,412.47,104.5Z"/></svg>